<svg width="28" height="24" viewBox="0 0 28 24" fill="none" xmlns="http://www.w3.org/2000/svg">
<path d="M22.4 19.2C23.1426 19.2 23.8548 19.4529 24.3799 19.9029C24.905 20.353 25.2 20.9635 25.2 21.6C25.2 22.2365 24.905 22.847 24.3799 23.2971C23.8548 23.7471 23.1426 24 22.4 24C21.6574 24 20.9452 23.7471 20.4201 23.2971C19.895 22.847 19.6 22.2365 19.6 21.6C19.6 20.268 20.846 19.2 22.4 19.2ZM0 0H4.578L5.894 2.4H26.6C26.9713 2.4 27.3274 2.52643 27.59 2.75147C27.8525 2.97652 28 3.28174 28 3.6C28 3.804 27.93 4.008 27.832 4.2L22.82 11.964C22.344 12.696 21.42 13.2 20.37 13.2H9.94L8.68 15.156L8.638 15.3C8.638 15.3796 8.67487 15.4559 8.74051 15.5121C8.80615 15.5684 8.89517 15.6 8.988 15.6H25.2V18H8.4C7.65739 18 6.9452 17.7471 6.4201 17.2971C5.895 16.847 5.6 16.2365 5.6 15.6C5.6 15.18 5.726 14.784 5.936 14.448L7.84 11.508L2.8 2.4H0V0ZM8.4 19.2C9.14261 19.2 9.8548 19.4529 10.3799 19.9029C10.905 20.353 11.2 20.9635 11.2 21.6C11.2 22.2365 10.905 22.847 10.3799 23.2971C9.8548 23.7471 9.14261 24 8.4 24C7.65739 24 6.9452 23.7471 6.4201 23.2971C5.895 22.847 5.6 22.2365 5.6 21.6C5.6 20.268 6.846 19.2 8.4 19.2ZM21 10.8L24.892 4.8H7.196L10.5 10.8H21Z" fill="#FF6868"/>
</svg>
