<svg width="124" height="24" viewBox="0 0 124 24" fill="none" xmlns="http://www.w3.org/2000/svg">
<path d="M13.416 24C12.696 24 11.984 23.792 11.28 23.376C10.592 22.976 9.712 22.352 8.64 21.504C7.84 20.864 7.152 20.344 6.576 19.944C6.016 19.56 5.4 19.232 4.728 18.96C4.072 18.688 3.4 18.552 2.712 18.552C2.472 18.552 2.288 18.56 2.16 18.576L5.736 1.944C4.664 2.376 3.832 3.04 3.24 3.936C2.664 4.816 2.376 5.896 2.376 7.176C2.376 7.768 2.432 8.184 2.544 8.424C2.656 8.648 2.712 8.776 2.712 8.808C1.848 8.808 1.2 8.632 0.768 8.28C0.352 7.912 0.144 7.312 0.144 6.48C0.144 5.456 0.56 4.464 1.392 3.504C2.24 2.528 3.32 1.744 4.632 1.152C5.944 0.544 7.256 0.24 8.568 0.24C8.792 0.24 9.112 0.256 9.528 0.287999L5.832 17.52C6.28 17.632 6.736 17.792 7.2 18C7.68 18.224 8.256 18.52 8.928 18.888C9.968 19.448 10.856 19.872 11.592 20.16C12.328 20.464 13.096 20.616 13.896 20.616C14.616 20.616 15.288 20.488 15.912 20.232C15.784 21.4 15.496 22.32 15.048 22.992C14.616 23.664 14.072 24 13.416 24ZM12.4778 18.144C11.3098 18.144 10.3978 17.84 9.74175 17.232C9.08575 16.608 8.75775 15.64 8.75775 14.328C8.75775 13.224 8.97375 12.008 9.40575 10.68C9.83775 9.352 10.5418 8.208 11.5178 7.248C12.4938 6.272 13.7338 5.784 15.2378 5.784C16.9978 5.784 17.8778 6.552 17.8778 8.088C17.8778 8.984 17.6218 9.808 17.1098 10.56C16.5978 11.312 15.9178 11.92 15.0698 12.384C14.2218 12.832 13.3178 13.088 12.3578 13.152C12.3258 13.504 12.3098 13.744 12.3098 13.872C12.3098 15.2 12.8058 15.864 13.7978 15.864C14.2458 15.864 14.7258 15.744 15.2378 15.504C15.7498 15.264 16.2138 14.96 16.6298 14.592C16.1978 16.96 14.8138 18.144 12.4778 18.144ZM12.5258 12C13.1338 11.984 13.7018 11.784 14.2298 11.4C14.7738 11.016 15.2058 10.528 15.5258 9.936C15.8618 9.328 16.0298 8.696 16.0298 8.04C16.0298 7.384 15.8298 7.056 15.4297 7.056C14.8698 7.056 14.3098 7.568 13.7498 8.592C13.2058 9.6 12.7978 10.736 12.5258 12ZM28.6059 2.736L32.1579 2.256L30.4539 10.272C31.2219 10.208 31.9259 9.872 32.5659 9.264C33.2219 8.656 33.7339 7.904 34.1019 7.008C34.4699 6.112 34.6539 5.232 34.6539 4.368C34.6539 3.408 34.4059 2.624 33.9099 2.016C33.4139 1.408 32.6699 1.104 31.6779 1.104C29.7259 1.104 28.1979 1.616 27.0939 2.64C26.0059 3.664 25.4619 5.096 25.4619 6.936C25.4619 7.528 25.5179 7.944 25.6299 8.184C25.7419 8.408 25.7979 8.536 25.7979 8.568C24.9339 8.568 24.2859 8.392 23.8539 8.04C23.4379 7.672 23.2299 7.072 23.2299 6.24C23.2299 5.216 23.6459 4.224 24.4779 3.264C25.3259 2.288 26.4059 1.504 27.7179 0.912C29.0299 0.303999 30.3419 -1.43051e-06 31.6539 -1.43051e-06C32.9179 -1.43051e-06 33.9739 0.215999 34.8219 0.647999C35.6699 1.08 36.2939 1.656 36.6939 2.376C37.1099 3.08 37.3179 3.864 37.3179 4.728C37.3179 5.768 37.0299 6.784 36.4539 7.776C35.8939 8.768 35.0859 9.584 34.0299 10.224C32.9739 10.848 31.7579 11.16 30.3819 11.16H30.2619L28.7979 18H25.3419L28.6059 2.736ZM39.7238 18.144C38.8118 18.144 38.0518 17.832 37.4438 17.208C36.8357 16.584 36.5317 15.608 36.5317 14.28C36.5317 13.096 36.7638 11.856 37.2278 10.56C37.7078 9.248 38.4118 8.144 39.3398 7.248C40.2838 6.336 41.4038 5.88 42.6998 5.88C43.3558 5.88 43.8438 5.992 44.1638 6.216C44.4838 6.44 44.6438 6.736 44.6438 7.104V7.272L44.9078 6H48.3638L46.6358 14.16C46.5718 14.4 46.5398 14.656 46.5398 14.928C46.5398 15.616 46.8678 15.96 47.5238 15.96C47.9718 15.96 48.3558 15.752 48.6758 15.336C49.0118 14.92 49.2758 14.376 49.4678 13.704H50.4758C49.8838 15.432 49.1478 16.608 48.2678 17.232C47.4038 17.84 46.5318 18.144 45.6518 18.144C44.9798 18.144 44.4358 17.96 44.0198 17.592C43.6198 17.208 43.3798 16.656 43.2998 15.936C42.8358 16.592 42.3158 17.128 41.7398 17.544C41.1798 17.944 40.5078 18.144 39.7238 18.144ZM41.2838 15.816C41.6838 15.816 42.0758 15.632 42.4598 15.264C42.8598 14.88 43.1318 14.36 43.2758 13.704L44.4278 8.28C44.4278 8.072 44.3478 7.872 44.1878 7.68C44.0278 7.472 43.7798 7.368 43.4438 7.368C42.8038 7.368 42.2278 7.744 41.7158 8.496C41.2038 9.232 40.8038 10.128 40.5158 11.184C40.2278 12.224 40.0838 13.144 40.0838 13.944C40.0838 14.744 40.1958 15.256 40.4198 15.48C40.6598 15.704 40.9478 15.816 41.2838 15.816ZM51.1086 6H54.5646L54.2526 7.488C54.7966 7.008 55.2846 6.64 55.7166 6.384C56.1646 6.128 56.6446 6 57.1566 6C57.6686 6 58.0686 6.176 58.3566 6.528C58.6606 6.88 58.8126 7.304 58.8126 7.8C58.8126 8.264 58.6606 8.672 58.3566 9.024C58.0526 9.376 57.6286 9.552 57.0846 9.552C56.7326 9.552 56.4926 9.472 56.3646 9.312C56.2526 9.136 56.1646 8.888 56.1006 8.568C56.0526 8.36 56.0046 8.208 55.9566 8.112C55.9086 8.016 55.8206 7.968 55.6926 7.968C55.3566 7.968 55.0686 8.04 54.8286 8.184C54.6046 8.312 54.3086 8.544 53.9406 8.88L52.0206 18H48.5646L51.1086 6ZM60.876 18.144C60.108 18.144 59.484 17.904 59.004 17.424C58.54 16.944 58.308 16.224 58.308 15.264C58.308 14.864 58.372 14.344 58.5 13.704L59.94 6.96H59.148L59.34 6H60.132L60.852 2.688L64.404 2.208L63.588 6H65.028L64.836 6.96H63.396L61.86 14.16C61.796 14.4 61.764 14.656 61.764 14.928C61.764 15.248 61.836 15.48 61.98 15.624C62.14 15.752 62.396 15.816 62.748 15.816C63.212 15.816 63.644 15.624 64.044 15.24C64.444 14.84 64.732 14.328 64.908 13.704H65.916C65.324 15.432 64.564 16.608 63.636 17.232C62.708 17.84 61.788 18.144 60.876 18.144ZM68.9064 4.704C68.3784 4.704 67.9304 4.52 67.5624 4.152C67.1944 3.784 67.0104 3.336 67.0104 2.808C67.0104 2.28 67.1944 1.832 67.5624 1.464C67.9304 1.08 68.3784 0.887999 68.9064 0.887999C69.4344 0.887999 69.8824 1.08 70.2504 1.464C70.6344 1.832 70.8264 2.28 70.8264 2.808C70.8264 3.336 70.6344 3.784 70.2504 4.152C69.8824 4.52 69.4344 4.704 68.9064 4.704ZM67.2744 18.144C66.5064 18.144 65.8824 17.904 65.4024 17.424C64.9384 16.944 64.7064 16.224 64.7064 15.264C64.7064 14.864 64.7704 14.344 64.8984 13.704L66.5304 6H69.9864L68.2584 14.16C68.1944 14.4 68.1624 14.656 68.1624 14.928C68.1624 15.248 68.2344 15.48 68.3784 15.624C68.5384 15.752 68.7944 15.816 69.1464 15.816C69.6104 15.816 70.0424 15.624 70.4424 15.24C70.8424 14.84 71.1304 14.328 71.3064 13.704H72.3144C71.7224 15.432 70.9624 16.608 70.0344 17.232C69.1064 17.84 68.1864 18.144 67.2744 18.144ZM74.0329 18.144C73.2649 18.144 72.6169 18 72.0889 17.712C71.5609 17.408 71.1689 17.024 70.9129 16.56C70.6569 16.08 70.5289 15.584 70.5289 15.072C70.5289 14.544 70.6569 14.088 70.9129 13.704C71.1529 13.304 71.4489 13.016 71.8009 12.84C72.4249 11.72 72.9689 10.592 73.4329 9.456C73.8969 8.304 74.3369 7.064 74.7529 5.736L78.3049 5.256C78.3849 7.304 78.5209 9.52 78.7129 11.904C78.7929 12.864 78.8329 13.56 78.8329 13.992C78.8329 14.36 78.8009 14.664 78.7369 14.904C79.4889 14.472 80.0649 14.072 80.4649 13.704H81.4729C80.4489 14.888 79.2249 15.888 77.8009 16.704C77.3369 17.2 76.7609 17.568 76.0729 17.808C75.4009 18.032 74.7209 18.144 74.0329 18.144ZM73.2649 16.248C73.8569 16.248 74.3529 16.072 74.7529 15.72C75.1529 15.368 75.3529 14.8 75.3529 14.016C75.3529 13.536 75.3049 12.864 75.2089 12C75.0489 10.176 74.9449 8.952 74.8969 8.328C74.5129 9.592 73.8649 11.104 72.9529 12.864C73.3209 13.056 73.5049 13.336 73.5049 13.704C73.5049 14.008 73.4009 14.28 73.1929 14.52C73.0009 14.76 72.7529 14.88 72.4489 14.88C72.1129 14.88 71.8969 14.776 71.8009 14.568C71.8009 15.144 71.9129 15.568 72.1369 15.84C72.3769 16.112 72.7529 16.248 73.2649 16.248ZM83.1969 18.144C82.4289 18.144 81.7809 18 81.2529 17.712C80.7249 17.408 80.3329 17.024 80.0769 16.56C79.8209 16.08 79.6929 15.584 79.6929 15.072C79.6929 14.544 79.8209 14.088 80.0769 13.704C80.3169 13.304 80.6129 13.016 80.9649 12.84C81.5889 11.72 82.1329 10.592 82.5969 9.456C83.0609 8.304 83.5009 7.064 83.9169 5.736L87.4689 5.256C87.5489 7.304 87.6849 9.52 87.8769 11.904C87.9569 12.864 87.9969 13.56 87.9969 13.992C87.9969 14.36 87.9649 14.664 87.9009 14.904C88.6529 14.472 89.2289 14.072 89.6289 13.704H90.6369C89.6129 14.888 88.3889 15.888 86.9649 16.704C86.5009 17.2 85.9249 17.568 85.2369 17.808C84.5649 18.032 83.8849 18.144 83.1969 18.144ZM82.4289 16.248C83.0209 16.248 83.5169 16.072 83.9169 15.72C84.3169 15.368 84.5169 14.8 84.5169 14.016C84.5169 13.536 84.4689 12.864 84.3729 12C84.2129 10.176 84.1089 8.952 84.0609 8.328C83.6769 9.592 83.0289 11.104 82.1169 12.864C82.4849 13.056 82.6689 13.336 82.6689 13.704C82.6689 14.008 82.5649 14.28 82.3569 14.52C82.1649 14.76 81.9169 14.88 81.6129 14.88C81.2769 14.88 81.0609 14.776 80.9649 14.568C80.9649 15.144 81.0769 15.568 81.3009 15.84C81.5409 16.112 81.9169 16.248 82.4289 16.248ZM93.057 18.144C91.873 18.144 90.953 17.84 90.297 17.232C89.641 16.608 89.313 15.64 89.313 14.328C89.313 13.224 89.529 12.008 89.961 10.68C90.393 9.352 91.097 8.208 92.073 7.248C93.049 6.272 94.289 5.784 95.793 5.784C97.553 5.784 98.433 6.552 98.433 8.088C98.433 8.984 98.177 9.808 97.665 10.56C97.153 11.312 96.473 11.92 95.625 12.384C94.777 12.832 93.873 13.088 92.913 13.152C92.881 13.632 92.865 13.952 92.865 14.112C92.865 14.896 93.001 15.432 93.273 15.72C93.545 15.992 93.985 16.128 94.593 16.128C95.457 16.128 96.193 15.928 96.801 15.528C97.425 15.128 98.105 14.52 98.841 13.704H99.657C97.881 16.664 95.681 18.144 93.057 18.144ZM93.105 12C93.697 11.968 94.257 11.76 94.785 11.376C95.329 10.992 95.761 10.504 96.081 9.912C96.417 9.32 96.585 8.696 96.585 8.04C96.585 7.384 96.385 7.056 95.985 7.056C95.409 7.056 94.841 7.56 94.281 8.568C93.737 9.576 93.345 10.72 93.105 12ZM100.468 6H103.924L103.612 7.488C104.156 7.008 104.644 6.64 105.076 6.384C105.524 6.128 106.004 6 106.516 6C107.028 6 107.428 6.176 107.716 6.528C108.02 6.88 108.172 7.304 108.172 7.8C108.172 8.264 108.02 8.672 107.716 9.024C107.412 9.376 106.988 9.552 106.444 9.552C106.092 9.552 105.852 9.472 105.724 9.312C105.612 9.136 105.524 8.888 105.46 8.568C105.412 8.36 105.364 8.208 105.316 8.112C105.268 8.016 105.18 7.968 105.052 7.968C104.716 7.968 104.428 8.04 104.188 8.184C103.964 8.312 103.668 8.544 103.3 8.88L101.38 18H97.9239L100.468 6ZM111.867 4.704C111.339 4.704 110.891 4.52 110.523 4.152C110.155 3.784 109.971 3.336 109.971 2.808C109.971 2.28 110.155 1.832 110.523 1.464C110.891 1.08 111.339 0.887999 111.867 0.887999C112.395 0.887999 112.843 1.08 113.211 1.464C113.595 1.832 113.787 2.28 113.787 2.808C113.787 3.336 113.595 3.784 113.211 4.152C112.843 4.52 112.395 4.704 111.867 4.704ZM110.235 18.144C109.467 18.144 108.843 17.904 108.363 17.424C107.899 16.944 107.667 16.224 107.667 15.264C107.667 14.864 107.731 14.344 107.859 13.704L109.491 6H112.947L111.219 14.16C111.155 14.4 111.123 14.656 111.123 14.928C111.123 15.248 111.195 15.48 111.339 15.624C111.499 15.752 111.755 15.816 112.107 15.816C112.571 15.816 113.003 15.624 113.403 15.24C113.803 14.84 114.091 14.328 114.267 13.704H115.275C114.683 15.432 113.923 16.608 112.995 17.232C112.067 17.84 111.147 18.144 110.235 18.144ZM117.642 18.144C116.474 18.144 115.562 17.84 114.906 17.232C114.25 16.608 113.922 15.64 113.922 14.328C113.922 13.224 114.138 12.008 114.57 10.68C115.002 9.352 115.706 8.208 116.682 7.248C117.658 6.272 118.898 5.784 120.402 5.784C122.162 5.784 123.042 6.552 123.042 8.088C123.042 8.984 122.786 9.808 122.274 10.56C121.762 11.312 121.082 11.92 120.234 12.384C119.386 12.832 118.482 13.088 117.522 13.152C117.49 13.504 117.474 13.744 117.474 13.872C117.474 15.2 117.97 15.864 118.962 15.864C119.41 15.864 119.89 15.744 120.402 15.504C120.914 15.264 121.378 14.96 121.794 14.592C121.362 16.96 119.978 18.144 117.642 18.144ZM117.69 12C118.298 11.984 118.866 11.784 119.394 11.4C119.938 11.016 120.37 10.528 120.69 9.936C121.026 9.328 121.194 8.696 121.194 8.04C121.194 7.384 120.994 7.056 120.594 7.056C120.034 7.056 119.474 7.568 118.914 8.592C118.37 9.6 117.962 10.736 117.69 12Z" fill="#FF3C3C"/>
</svg>
